<?xml version="1.0" encoding="utf-8"?>
<!-- Generator: Adobe Illustrator 19.0.0, SVG Export Plug-In . SVG Version: 6.00 Build 0)  -->
<svg version="1.1" id="layer" xmlns="http://www.w3.org/2000/svg" xmlns:xlink="http://www.w3.org/1999/xlink" x="0px" y="0px"
	 viewBox="-153 -46 652 652" style="enable-background:new -153 -46 652 652;" xml:space="preserve">
<style type="text/css">
	.st0{fill:#0368AF;}
	.st1{fill:#C51F28;}
</style>
<path id="XMLID_179_" class="st0" d="M12.6,339.3h6.6c4.7-4.9,8.9-10.3,12.5-16.1H23C19.7,329.2,16.1,334.4,12.6,339.3 M8.6,323.2
	c-2.2,5.5-5,10.9-8.4,15.9L0,339.3h9.5c0.6-0.6,5.8-6.2,11.1-16.1H8.6z M-32.2,323.2c0,0-0.5,10.4-1.5,16.1h16.2
	c0.3-0.6,2.8-6.3,5.3-16.1H-32.2z M-9.5,323.2l-5.2,16.1H-3c0-0.1,0-0.1,0.1-0.2c0.5-1.2,4.5-6.5,8.5-15.9H-9.5z M-31.7,320.5h20.2
	c1.3-5.4,2.5-11.8,3.4-19.2h-22.6L-31.7,320.5z M24.4,320.5h8.8c3.4-6,6.1-12.5,8-19.2h-9.7C29.6,308.7,27.2,315,24.4,320.5
	 M12.2,301.3H-5.4c-0.7,5.9-1.6,12.1-2.9,18.4l-0.3,0.9H6.6C8.7,315.2,10.7,308.8,12.2,301.3 M29,301.3H14.8
	c-1.1,6-2.8,12.6-5.2,19.2h12.3C24.5,315.2,27.1,308.7,29,301.3 M32.3,277.5h-15c0,2.7-0.2,10.9-2,21.2h14.4
	C31.1,292.3,32.1,285.2,32.3,277.5 M32,298.6h9.8c1.7-6.8,2.6-13.9,2.7-21.2H34.5C34.2,285.4,33.4,292.4,32,298.6 M-5.1,298.6h17.8
	c1.1-6.3,1.7-13.4,1.7-21.2H-4.1C-4.1,284.1-4.4,291.2-5.1,298.6 M-50.8,339c0,0,14.2,0.5,14.4,0c0.2-0.4,1.7-15.5,1.7-15.5h-17.9
	C-52.6,324.7-50.8,339-50.8,339 M29.7,253.2H15.1c1.1,6.4,1.9,13.6,2.1,21.7h15C32.2,266.9,31.3,259.7,29.7,253.2 M34.6,274.8h10
	c-0.1-7.5-1.2-14.7-3-21.7h-9.4C33.7,259.8,34.6,267,34.6,274.8 M29,250.5c-1.9-7.1-4.5-13.4-7.1-18.7H9.5
	c1.9,5.2,3.7,11.4,5.1,18.7H29z M-9.2,231.8c1.2,5.3,2.4,11.6,3.4,18.7h17.9c-1.4-7.6-3.2-13.7-5.2-18.7H-9.2z M31.5,250.5h9.3
	c-2-6.6-4.7-12.8-8-18.7h-8.3C27.1,237.1,29.6,243.4,31.5,250.5 M31.2,229.2c-3.6-5.9-7.9-11.3-12.8-16.2h-5.9
	c0,0,5.4,6.2,10.7,16.2H31.2z M5.7,229.2c-2.9-6.6-6.1-11.4-8.5-15.9L-3,213l-12,0c0,0,2.6,5.9,5.2,16.1H5.7z M-12.1,229.2
	c-2.8-10.6-5.5-16.2-5.5-16.2h-16.1l1.7,16.2H-12.1z M20.5,229.2c-4.5-8.3-9.1-13.8-11.2-16.2h-9.8c1.8,2.3,5.4,7.5,8.9,16.2H20.5z"
	/>
<path id="XMLID_90_" class="st1" d="M-118.9,323.2c3.5,5.9,7.7,11.3,12.5,16.1h6.4c-3.9-4.9-7.6-10-10.8-16.1H-118.9z M-95.7,323.2
	h-11.8c5.2,10,10.3,15.5,10.9,16.1h9.5l-0.2-0.2C-90.7,334.1-93.5,328.7-95.7,323.2 M-99.2,301.3c1.4,7.3,3.4,13.8,5.4,19.2h15.4
	c-1.5-6.6-2.6-13-3.4-19.2H-99.2z M-118.8,301.3h-9.6c1.9,6.8,4.6,13.2,8,19.2h8.3C-114.8,315-117.1,308.8-118.8,301.3 M-96.7,320.5
	c-2.4-6.6-4.1-13.2-5.2-19.2h-13.9c1.9,7.5,4.4,13.9,7,19.2H-96.7z M-121.8,277.5h-10c0.1,7.3,1,14.4,2.7,21.2h9.8
	C-120.6,292.5-121.5,285.5-121.8,277.5 M-102.4,298.6c-1.7-10.3-2-18.5-2-21.2H-119c0.2,7.7,1.1,14.8,2.6,21.2H-102.4z M-80.6,277.5
	c0.2,11.1,1.3,21,1.3,21v0.2h22.5c0.2-5.2,0.1-13.7,0-21.2H-80.6z M-83.4,277.5h-18c0,7.6,0.6,14.7,1.8,21.2h17.5
	C-83,291.2-83.4,284.1-83.4,277.5 M-122,274.4c-0.2-7.5,0.7-14.7,2.2-21.2h-9.1c-1.8,6.9-2.9,14.2-3,21.7h9.9
	C-121.9,274.7-122,274.5-122,274.4 M-33.6,253.2H-54c-0.4,7.7-0.4,19.1-0.4,21.7h21.3C-33.2,272-33.4,260.9-33.6,253.2 M-119,274.8
	h14.7c0.2-8.1,1-15.3,2.1-21.7h-14.3C-118,259.7-119,266.9-119,274.8 M-80.4,263.3c-0.2,3.7-0.3,7.6-0.3,11.5h23.7
	c0-4,0-7.5,0.1-9.7c0.2-4.5,0.4-8.4,0.6-11.9h-23.1C-79.8,256.5-80.2,260-80.4,263.3 M-99.6,253.2c-1,6.2-1.6,13.3-1.8,21.7h18
	c0.1-7.8,0.6-15.1,1.4-21.7H-99.6z M-111.9,231.8h-8.2c-3.3,5.9-6,12.1-8,18.7h9C-117.2,243.5-114.5,237.1-111.9,231.8 M-79,250.5
	h22.9c0.5-9.8,0.8-15.5,0.9-18.7h-20.4C-76.3,235.1-77.8,242.4-79,250.5 M-78.3,231.8H-94c-2,5-3.9,11.1-5.2,18.7h17.4
	C-80.8,243.4-79.5,237.1-78.3,231.8 M-96.6,231.8h-12.2c-2.6,5.3-5.1,11.6-7,18.7h14.1C-100.4,243.2-98.6,237-96.6,231.8
	 M-100,213.5l0.2-0.5h-6c-4.9,4.9-9.1,10.3-12.8,16.2h8C-105.1,219.3-100,213.5-100,213.5 M-77.6,229.2c2.7-10.3,5.3-16,5.3-16
	l0.1-0.1h-11.9l-0.1,0.2c-2.5,4.6-5.6,9.4-8.5,15.9H-77.6z M-95.6,229.2c3.5-8.7,7.1-13.9,8.9-16.2h-9.8c-2.1,2.4-6.6,7.9-11,16.2
	H-95.6z"/>
<path id="XMLID_1_" d="M444.1,211.6h2.8v7.2h1.7v-7.2h2.8v-1.5h-7.3V211.6z M454.4,211.9l2.4,7h1.4l2.4-7v7h1.6v-8.7h-2.4l-2.2,6.2
	l-2.2-6.2h-2.4v8.7h1.6V211.9z M466.3,339.2h1.9v-2h-1.9V339.2z M463.5,325.9H461l-6.6,6.5v-6.5h-1.7v13.3h1.7v-4.6l2.1-2l4.7,6.7
	h2.3l-5.7-8L463.5,325.9z M446.8,336.7l-6.6-10.8h-2.1v13.3h1.7v-10.8l6.7,10.8h2v-13.3h-1.7V336.7z M432.2,339.2h1.8v-13.3h-1.8
	V339.2z M422.2,325.9h-1.8v13.3h8.4v-1.6h-6.6V325.9z M400.9,327.5h4.4v11.7h1.8v-11.7h4.4v-1.6h-10.7V327.5z M395.2,331.9l-1.8-0.4
	c-1.2-0.3-2-0.5-2.3-0.7c-0.5-0.3-0.8-0.8-0.8-1.4c0-0.6,0.2-1.1,0.7-1.6c0.4-0.4,1.2-0.7,2.2-0.7c1.2,0,2.1,0.4,2.7,1
	c0.3,0.4,0.5,0.9,0.5,1.6h1.7c0-1.5-0.5-2.6-1.4-3.2c-0.9-0.7-2.1-1-3.4-1c-1.5,0-2.6,0.4-3.4,1.2c-0.8,0.8-1.2,1.7-1.2,2.9
	c0,1.1,0.4,1.9,1.2,2.5c0.5,0.3,1.3,0.6,2.4,0.9l1.7,0.4c0.9,0.2,1.6,0.5,2.1,0.8c0.4,0.3,0.7,0.8,0.7,1.5c0,1-0.5,1.6-1.5,2
	c-0.5,0.2-1.1,0.3-1.8,0.3c-1.4,0-2.4-0.4-3-1.3c-0.3-0.5-0.5-1.1-0.5-1.8h-1.7c0,1.4,0.4,2.6,1.3,3.4c0.9,0.8,2.2,1.3,3.7,1.3
	c1.4,0,2.6-0.3,3.6-0.9c1-0.6,1.5-1.7,1.5-3.2c0-1.2-0.4-2.1-1.2-2.7C396.8,332.4,396.1,332.2,395.2,331.9 M378.6,333.1h7.2v-1.5
	h-7.2v-4h7.8v-1.6h-9.6v13.3h9.7v-1.6h-7.9V333.1z M368.2,333.6h4.1c0,1.6-0.4,2.7-1.2,3.4c-0.8,0.7-1.7,1-2.9,1
	c-1.5,0-2.6-0.5-3.3-1.5c-0.7-1-1-2.3-1-3.9c0-1.8,0.4-3.2,1.2-4.1c0.8-0.9,1.8-1.4,3-1.4c1,0,1.8,0.2,2.5,0.7
	c0.7,0.4,1.1,1.2,1.3,2.1h1.8c-0.3-1.7-1.1-3-2.4-3.7c-0.9-0.5-2-0.7-3.2-0.7c-1.8,0-3.2,0.6-4.3,1.9c-1.2,1.3-1.8,3.1-1.8,5.3
	c0,2.2,0.6,4,1.8,5.3c1.1,1,2.4,1.5,4,1.5c1.2,0,2.2-0.2,2.9-0.7c0.5-0.3,1-0.7,1.6-1.4l0.4,1.7h1.1v-7.1h-5.8V333.6z M357,336.7
	l-6.6-10.8h-2.1v13.3h1.7v-10.8l6.7,10.8h2v-13.3H357V336.7z M342.2,336.3c-0.7,1.1-1.8,1.7-3.4,1.7c-1.7,0-2.9-0.5-3.6-1.5
	c-0.7-1-1.1-2.3-1.1-3.7c0-1.9,0.4-3.3,1.3-4.2c0.9-0.9,2-1.4,3.3-1.4c1.4,0,2.5,0.5,3.3,1.4c0.8,1,1.2,2.2,1.2,3.8
	C343.3,333.8,342.9,335.2,342.2,336.3 M338.6,325.5c-2.2,0-3.9,0.8-5,2.5c-0.9,1.3-1.3,2.8-1.3,4.6c0,2,0.5,3.7,1.5,5
	c1.2,1.4,2.8,2,4.8,2c2.2,0,3.8-0.8,5-2.3c1-1.3,1.5-3,1.5-5c0-1.8-0.4-3.4-1.3-4.5C342.7,326.3,340.9,325.5,338.6,325.5
	 M326.6,331.5c-0.5,0.3-1.1,0.5-1.9,0.5h-4v-4.6h4.2c0.6,0,1.1,0.1,1.4,0.3c0.7,0.4,1,1,1,1.9C327.3,330.6,327,331.2,326.6,331.5
	 M329,338.1c-0.1-0.2-0.1-0.6-0.1-1.1l-0.1-1.8c0-0.8-0.2-1.3-0.4-1.7c-0.3-0.4-0.6-0.6-1.2-0.8c0.6-0.3,1-0.7,1.4-1.2
	c0.3-0.5,0.5-1.2,0.5-2c0-1.5-0.6-2.6-1.8-3.1c-0.6-0.3-1.4-0.4-2.4-0.4h-6v13.3h1.8v-5.7h3.9c0.7,0,1.2,0.1,1.5,0.2
	c0.6,0.3,0.9,0.9,0.9,1.8l0.1,2.2c0,0.5,0.1,0.9,0.1,1.1c0,0.2,0.1,0.3,0.1,0.4h2.2v-0.3C329.3,338.8,329.1,338.5,329,338.1
	 M305.4,327.5h4.4v11.7h1.8v-11.7h4.4v-1.6h-10.7V327.5z M300,331.9l-1.8-0.4c-1.2-0.3-2-0.5-2.3-0.7c-0.5-0.3-0.8-0.8-0.8-1.4
	c0-0.6,0.2-1.1,0.7-1.6c0.4-0.4,1.2-0.7,2.2-0.7c1.2,0,2.1,0.4,2.7,1c0.3,0.4,0.5,0.9,0.5,1.6h1.7c0-1.5-0.5-2.6-1.4-3.2
	c-0.9-0.7-2.1-1-3.4-1c-1.5,0-2.6,0.4-3.4,1.2c-0.8,0.8-1.2,1.7-1.2,2.9c0,1.1,0.4,1.9,1.2,2.5c0.5,0.3,1.3,0.6,2.4,0.9l1.7,0.4
	c0.9,0.2,1.6,0.5,2.1,0.8c0.4,0.3,0.7,0.8,0.7,1.5c0,1-0.5,1.6-1.5,2c-0.5,0.2-1.1,0.3-1.8,0.3c-1.4,0-2.4-0.4-3-1.3
	c-0.3-0.5-0.5-1.1-0.5-1.8h-1.7c0,1.4,0.4,2.6,1.3,3.4c0.9,0.8,2.1,1.3,3.7,1.3c1.4,0,2.6-0.3,3.6-0.9c1-0.6,1.5-1.7,1.5-3.2
	c0-1.2-0.4-2.1-1.2-2.7C301.5,332.4,300.8,332.2,300,331.9 M280.9,331.9l-1.8-0.4c-1.2-0.3-2-0.5-2.3-0.7c-0.5-0.3-0.8-0.8-0.8-1.4
	c0-0.6,0.2-1.1,0.7-1.6s1.2-0.7,2.2-0.7c1.3,0,2.1,0.4,2.7,1c0.3,0.4,0.5,0.9,0.6,1.6h1.7c0-1.5-0.5-2.6-1.4-3.2
	c-0.9-0.7-2.1-1-3.4-1c-1.5,0-2.6,0.4-3.4,1.2c-0.8,0.8-1.2,1.7-1.2,2.9c0,1.1,0.4,1.9,1.2,2.5c0.5,0.3,1.3,0.6,2.4,0.9l1.7,0.4
	c0.9,0.2,1.6,0.5,2.1,0.8c0.4,0.3,0.7,0.8,0.7,1.5c0,1-0.5,1.6-1.5,2c-0.5,0.2-1.1,0.3-1.8,0.3c-1.4,0-2.4-0.4-3-1.3
	c-0.3-0.5-0.5-1.1-0.5-1.8h-1.7c0,1.4,0.4,2.6,1.3,3.4c0.9,0.8,2.1,1.3,3.7,1.3c1.4,0,2.6-0.3,3.6-0.9c1-0.6,1.5-1.7,1.5-3.2
	c0-1.2-0.4-2.1-1.2-2.7C282.4,332.4,281.8,332.2,280.9,331.9 M268.3,327.9h1c0,0,0,0.1,0,0.1c0,0,0,0.1,0,0.1c0,0.4-0.1,0.8-0.2,1.1
	c-0.2,0.3-0.4,0.5-0.8,0.6v0.8c0.7-0.1,1.1-0.4,1.4-0.9c0.3-0.5,0.5-1.2,0.5-2v-1.8h-1.9V327.9z M262.2,336.7l-6.6-10.8h-2.1v13.3
	h1.7v-10.8l6.7,10.8h2v-13.3h-1.7V336.7z M247.4,339.2h1.8v-13.3h-1.8V339.2z M236.8,333.8l2.1-5.9l2,5.9H236.8z M238,325.9l-5,13.3
	h1.8l1.4-4h5.2l1.4,4h2l-4.8-13.3H238z M228.9,331.4h-6.8v-5.5h-1.8v13.3h1.8V333h6.8v6.2h1.8v-13.3h-1.8V331.4z M214.8,336.5
	c-0.7,1-1.7,1.5-2.9,1.5c-1.4,0-2.5-0.5-3.2-1.5c-0.7-1-1.1-2.2-1.1-3.8c0-1.9,0.4-3.3,1.2-4.2c0.8-0.9,1.8-1.4,3.1-1.4
	c1,0,1.8,0.3,2.4,0.8c0.6,0.5,1,1.2,1.2,2h1.7c-0.1-1.1-0.6-2.1-1.5-3c-0.9-0.9-2.2-1.3-3.8-1.3c-1.9,0-3.4,0.7-4.5,2.1
	c-1,1.3-1.5,2.9-1.5,4.8c0,2.6,0.7,4.5,2,5.7c1,0.9,2.3,1.4,3.8,1.4c1.7,0,3.1-0.6,4.2-1.7c0.9-0.9,1.4-2.1,1.5-3.5h-1.7
	C215.4,335.2,215.2,335.9,214.8,336.5 M193,332.3l-3.8-6.4h-2.1l5,8v5.4h1.8v-5.4l5-8h-2.1L193,332.3z M180.4,325.9h-1.8v13.3h8.4
	v-1.6h-6.6V325.9z M173.2,331.6c-0.5,0.3-1.1,0.5-1.9,0.5h-3.5v-4.6h3.5c0.7,0,1.2,0.1,1.6,0.3c0.7,0.4,1.1,1,1.1,2
	C174,330.6,173.7,331.2,173.2,331.6 M171.9,325.9H166v13.3h1.8v-5.6h4.1c1.3,0,2.3-0.4,2.9-1.1c0.6-0.8,1-1.7,1-2.7
	c0-1.2-0.4-2.1-1.1-2.8C174,326.2,173,325.9,171.9,325.9 M160.4,331.6c-0.5,0.3-1.1,0.5-1.9,0.5h-3.5v-4.6h3.5
	c0.7,0,1.2,0.1,1.6,0.3c0.7,0.4,1.1,1,1.1,2C161.1,330.6,160.9,331.2,160.4,331.6 M159,325.9h-5.9v13.3h1.8v-5.6h4.1
	c1.3,0,2.3-0.4,2.9-1.1c0.6-0.8,1-1.7,1-2.7c0-1.2-0.4-2.1-1.1-2.8C161.1,326.2,160.2,325.9,159,325.9 M147.8,334.1
	c0,1-0.1,1.7-0.4,2.3c-0.5,1-1.6,1.6-3.1,1.6c-1.3,0-2.2-0.5-2.7-1.5c-0.4-0.6-0.5-1.4-0.5-2.4v-8.2h-1.8v7.5c0,1.6,0.2,2.9,0.7,3.8
	c0.8,1.6,2.3,2.4,4.5,2.4c2.2,0,3.7-0.8,4.5-2.4c0.4-0.9,0.7-2.1,0.7-3.8v-7.5h-1.8V334.1z M132.7,331.9l-1.8-0.4
	c-1.2-0.3-2-0.5-2.3-0.7c-0.5-0.3-0.8-0.8-0.8-1.4c0-0.6,0.2-1.1,0.7-1.6c0.4-0.4,1.2-0.7,2.2-0.7c1.2,0,2.1,0.4,2.7,1
	c0.3,0.4,0.5,0.9,0.5,1.6h1.7c0-1.5-0.5-2.6-1.4-3.2c-0.9-0.7-2.1-1-3.4-1c-1.5,0-2.6,0.4-3.4,1.2c-0.8,0.8-1.2,1.7-1.2,2.9
	c0,1.1,0.4,1.9,1.2,2.5c0.5,0.3,1.3,0.6,2.4,0.9l1.7,0.4c0.9,0.2,1.6,0.5,2.1,0.8c0.4,0.3,0.7,0.8,0.7,1.5c0,1-0.5,1.6-1.5,2
	c-0.5,0.2-1.1,0.3-1.8,0.3c-1.4,0-2.4-0.4-3-1.3c-0.3-0.5-0.5-1.1-0.5-1.8h-1.7c0,1.4,0.4,2.6,1.3,3.4c0.9,0.8,2.1,1.3,3.7,1.3
	c1.4,0,2.6-0.3,3.6-0.9c1-0.6,1.5-1.7,1.5-3.2c0-1.2-0.4-2.1-1.2-2.7C134.3,332.4,133.6,332.2,132.7,331.9 M114.6,331.5
	c-0.5,0.3-1.1,0.5-1.9,0.5h-4v-4.6h4.2c0.6,0,1.1,0.1,1.4,0.3c0.7,0.4,1,1,1,1.9C115.3,330.6,115,331.2,114.6,331.5 M117,338.1
	c-0.1-0.2-0.1-0.6-0.1-1.1l-0.1-1.8c0-0.8-0.2-1.3-0.4-1.7c-0.3-0.4-0.7-0.6-1.2-0.8c0.6-0.3,1-0.7,1.4-1.2c0.3-0.5,0.5-1.2,0.5-2
	c0-1.5-0.6-2.6-1.8-3.1c-0.6-0.3-1.5-0.4-2.4-0.4h-6v13.3h1.8v-5.7h3.9c0.7,0,1.2,0.1,1.6,0.2c0.6,0.3,0.9,0.9,0.9,1.8l0.1,2.2
	c0,0.5,0.1,0.9,0.1,1.1c0,0.2,0.1,0.3,0.1,0.4h2.2v-0.3C117.3,338.8,117.1,338.5,117,338.1 M101.5,334.1c0,1-0.1,1.7-0.4,2.3
	c-0.5,1-1.6,1.6-3.1,1.6c-1.3,0-2.2-0.5-2.7-1.5c-0.4-0.6-0.5-1.4-0.5-2.4v-8.2h-1.8v7.5c0,1.6,0.2,2.9,0.7,3.8
	c0.8,1.6,2.3,2.4,4.5,2.4c2.2,0,3.7-0.8,4.5-2.4c0.4-0.9,0.7-2.1,0.7-3.8v-7.5h-1.8V334.1z M87.1,336.3c-0.7,1.1-1.8,1.7-3.4,1.7
	c-1.7,0-2.8-0.5-3.6-1.5c-0.7-1-1.1-2.3-1.1-3.7c0-1.9,0.4-3.3,1.3-4.2c0.9-0.9,2-1.4,3.3-1.4c1.4,0,2.5,0.5,3.3,1.4
	c0.8,1,1.2,2.2,1.2,3.8C88.2,333.8,87.8,335.2,87.1,336.3 M83.5,325.5c-2.2,0-3.9,0.8-5,2.5c-0.9,1.3-1.3,2.8-1.3,4.6
	c0,2,0.5,3.7,1.5,5c1.2,1.4,2.7,2,4.8,2c2.2,0,3.8-0.8,5-2.3c1-1.3,1.5-3,1.5-5c0-1.8-0.4-3.4-1.3-4.5
	C87.6,326.3,85.9,325.5,83.5,325.5 M69.8,332.3l-3.8-6.4H64l5,8v5.4h1.8v-5.4l5-8h-2.1L69.8,332.3z M436.8,223.1
	c-0.4,0-1.3,0.2-2.9,0.6c-1.6,0.2-4,0.5-7.5,0.5h-43.1c-3.6,0-7.7-0.2-10.9-0.5c-2.7-0.2-3.8-1.3-4.7-1.3c-0.7,0-1,0.7-1.3,2.1
	c-0.2,0.9-2.3,10.9-2.3,12.7c0,1.2,0.2,1.8,1,1.8c0.7,0,1-0.4,1.2-1.3c0.2-0.9,0.8-2.2,1.9-3.9c1.6-2.4,4.2-3,10.6-3.2l16.2-0.4
	v45.2c0,10.1,0,18.9-0.5,23.5c-0.3,3.2-1,5.6-3.2,6.1c-1,0.2-2.3,0.4-3.9,0.4c-1.3,0-1.7,0.3-1.7,0.9c0,0.8,0.8,1.1,2.2,1.1
	c4.4,0,11.2-0.3,13.7-0.3c3.1,0,9.9,0.3,17.1,0.3c1.2,0,2.1-0.3,2.1-1.1c0-0.5-0.5-0.9-1.7-0.9c-1.6,0-4-0.2-5.6-0.4
	c-3.3-0.4-3.9-2.9-4.2-6c-0.5-4.7-0.5-13.5-0.5-23.6v-45.2l13.7,0.3c9.7,0.2,12.6,3.3,12.9,6.2l0.1,1.2c0.1,1.7,0.3,2.2,1.2,2.2
	c0.7,0,0.9-0.7,1-1.8c0-2.9,0.3-10.5,0.3-12.8C437.7,223.8,437.5,223.1,436.8,223.1 M337.1,273h-20c-0.4,0-0.5-0.3-0.4-0.8l10-27.1
	c0.1-0.4,0.3-1,0.7-1c0.3,0,0.4,0.5,0.5,1l9.8,27.2C337.8,272.7,337.7,273,337.1,273 M373.9,305.3c-1.3,0-2.9-0.1-4.6-0.4
	c-2.3-0.5-5.4-2.1-9.6-12c-7-16.8-24.4-61.8-27-67.8c-1.1-2.5-1.7-3.5-2.7-3.5c-1.1,0-1.7,1.2-3,4.4l-27.3,69.3
	c-2.2,5.5-4.3,9.3-9.3,9.9c-0.9,0.1-2.4,0.2-3.4,0.2c-0.9,0-1.3,0.2-1.3,0.9c0,0.9,0.7,1.1,2.1,1.1c5.7,0,11.7-0.3,12.9-0.3
	c3.4,0,8.1,0.3,11.5,0.3c1.2,0,1.8-0.2,1.8-1.1c0-0.7-0.3-0.9-1.6-0.9h-1.6c-3.4,0-4.4-1.4-4.4-3.4c0-1.3,0.5-4,1.6-6.7l5.9-15.8
	c0.2-0.7,0.4-0.9,1-0.9h24.3c0.5,0,0.9,0.2,1.1,0.8l8.7,23.4c0.5,1.3-0.2,2.3-1,2.5c-1.1,0.1-1.5,0.3-1.5,1c0,0.8,1.3,0.8,3.3,0.9
	c8.7,0.2,16.7,0.2,20.6,0.2c4,0,5-0.2,5-1.1C375.4,305.4,374.8,305.3,373.9,305.3 M287.1,230.2c-1.7-1.7-6.6-6.3-20.3-6.3
	c-5,0-11.3,0.3-15.8,0.3c-3,0-9.9-0.3-15.7-0.3c-1.6,0-2.4,0.2-2.4,1s0.7,1,1.9,1c1.5,0,3.4,0.1,4.2,0.3c3.6,0.8,4.5,2.5,4.7,6.3
	c0.2,3.5,0.2,6.6,0.2,23.4v19.4c0,10.1,0,18.9-0.5,23.5c-0.4,3.2-1,5.6-3.2,6.1c-1,0.2-2.3,0.4-3.9,0.4c-1.3,0-1.7,0.3-1.7,0.9
	c0,0.8,0.8,1.1,2.2,1.1c4.4,0,11.2-0.3,13.7-0.3c2.8,0,9.7,0.3,16.9,0.3c1.2,0,2.1-0.3,2.1-1.1c0-0.5-0.5-0.9-1.7-0.9
	c-1.6,0-4-0.2-5.6-0.4c-3.3-0.4-3.9-2.9-4.2-6c-0.5-4.7-0.5-13.5-0.5-23.6v-44.1c0-1.2,0.3-1.9,0.9-2.1c1-0.3,2.6-0.4,4.3-0.4
	c2.5,0,7,0.7,10.9,4.3c6.1,5.5,6.4,12.9,6.4,16.5c0,11.3-8.5,18.2-14.6,18.2c-2.3,0-3,0.3-3,1.2c0,0.8,0.8,0.9,1.3,1
	c0.5,0.1,1.7,0.1,2.3,0.1c15.5,0,26.8-11,26.8-26.7C292.6,237.5,289.5,232.5,287.1,230.2 M220.8,237.8c0.1,1.7,0.3,2.2,1.2,2.2
	c0.7,0,0.9-0.7,1-1.8c0-2.9,0.3-10.5,0.3-12.8c0-1.7-0.1-2.3-0.9-2.3c-0.4,0-1.3,0.2-2.9,0.6c-1.6,0.2-4,0.5-7.5,0.5h-43.1
	c-3.6,0-7.7-0.2-10.9-0.5c-2.7-0.2-3.8-1.3-4.7-1.3c-0.7,0-1,0.7-1.3,2.1c-0.2,0.9-2.3,10.9-2.3,12.7c0,1.2,0.2,1.8,1,1.8
	c0.7,0,1-0.4,1.2-1.3c0.2-0.9,0.8-2.2,1.9-3.9c1.6-2.4,4.2-3,10.6-3.2l16.2-0.4v45.2c0,10.1,0,18.9-0.5,23.5c-0.3,3.2-1,5.6-3.2,6.1
	c-1,0.2-2.3,0.4-3.9,0.4c-1.3,0-1.7,0.3-1.7,0.9c0,0.8,0.8,1.1,2.2,1.1c4.4,0,11.2-0.3,13.7-0.3c3.1,0,9.9,0.3,17.1,0.3
	c1.2,0,2.1-0.3,2.1-1.1c0-0.5-0.5-0.9-1.7-0.9c-1.6,0-4-0.2-5.6-0.4c-3.3-0.4-3.9-2.9-4.2-6c-0.5-4.7-0.5-13.5-0.5-23.6v-45.2
	l13.7,0.3c9.7,0.2,12.6,3.3,12.9,6.2L220.8,237.8z M140.2,303.1c1.1-3.7,2.4-13.4,2.4-14.7c0-0.9-0.2-1.7-1-1.7
	c-0.9,0-1.1,0.4-1.4,2.2c-0.4,2-1.8,5.2-3.7,7.3c-4.3,5.1-10.2,6.2-19.9,6.2c-14.6,0-34.3-13-34.3-39.3c0-10.7,2.1-21.2,10-28.6
	c4.8-4.4,11-6.8,20.5-6.8c10,0,18.5,3,22.1,6.8c2.7,2.9,4.1,6.7,4.3,10.1c0,1.5,0.2,2.4,1.1,2.4c1,0,1.2-0.9,1.3-2.5
	c0.2-2.2,0.1-8.3,0.3-11.9c0.2-3.9,0.5-5.2,0.5-6.1c0-0.7-0.4-1.2-1.6-1.3c-3.3-0.3-6.8-1.3-10.9-1.9c-5-0.7-9-1.1-15.8-1.1
	c-16.2,0-26.6,4.4-34.4,11.7c-10.4,9.7-12.7,22.7-12.7,30.2c0,10.7,2.8,23,13.5,32.5c9.9,8.7,22.4,12,37.4,12c7,0,15.3-0.8,19.6-2.5
	C139.3,305.5,139.7,305,140.2,303.1"/>
</svg>
